PathFileType	4	(X/Y/Z)	s02c0101.trc
DataRate	CameraRate	NumFrames	NumMarkers	Units	OrigDataRate	OrigDataStartFrame	OrigNumFrames
200	200	4	51	mm	200	0	2000
Frame#	Time	racr			lacr			c7			jug			rlel			rdr			llel			ldr			s2			lic			ric			lasi			rasi			rpsi			lpsi			rgt			lgt			rth1			rth2			rth3			rth4			rlfc			rmfc			rsh1			rsh2			rsh3			rsh4			rlmal			rmmal			rtoe			rmt5			rmt1			lth1			lth2			lth4			lth3			llfc			lmfc			lsh1			lsh2			lsh3			lsh4			llmal			lmmal			lcal			ltoe			lmt1			lmt5			SBIKE			LBIKE			RBIKE			
		X1	Y1	Z1	X2	Y2	Z2	X3	Y3	Z3	X4	Y4	Z4	X5	Y5	Z5	X6	Y6	Z6	X7	Y7	Z7	X8	Y8	Z8	X9	Y9	Z9	X10	Y10	Z10	X11	Y11	Z11	X12	Y12	Z12	X13	Y13	Z13	X14	Y14	Z14	X15	Y15	Z15	X16	Y16	Z16	X17	Y17	Z17	X18	Y18	Z18	X19	Y19	Z19	X20	Y20	Z20	X21	Y21	Z21	X22	Y22	Z22	X23	Y23	Z23	X24	Y24	Z24	X25	Y25	Z25	X26	Y26	Z26	X27	Y27	Z27	X28	Y28	Z28	X29	Y29	Z29	X30	Y30	Z30	X31	Y31	Z31	X32	Y32	Z32	X33	Y33	Z33	X34	Y34	Z34	X35	Y35	Z35	X36	Y36	Z36	X37	Y37	Z37	X38	Y38	Z38	X39	Y39	Z39	X40	Y40	Z40	X41	Y41	Z41	X42	Y42	Z42	X43	Y43	Z43	X44	Y44	Z44	X45	Y45	Z45	X46	Y46	Z46	X47	Y47	Z47	X48	Y48	Z48	X49	Y49	Z49	X50	Y50	Z50	X51	Y51	Z51	
0	0.0000	500.667085	1285.724871	-140.956964	523.067257	1303.613519	-477.698200	507.339722	1333.213526	-314.088647	466.747818	1202.308213	-319.931761	609.774508	1034.677204	-122.402214	724.630876	836.270440	-143.419932	585.487047	1031.563370	-527.644244	698.760220	831.539408	-488.129413	10.182266	1101.549351	-328.304674	155.703668	1096.487903	-465.990570	139.500077	1113.608653	-190.661039	199.231187	1059.474809	-443.808053	189.438373	1082.913183	-210.523994	30.374878	1143.913957	-288.574098	32.864511	1139.614728	-371.439150	115.656437	1039.955556	-143.076061	94.563097	1000.890691	-498.874968	202.255890	1012.221183	-139.197696	289.325998	1002.015131	-149.077214	361.827835	961.852759	-125.900742	298.301951	1024.975143	-178.193675	480.986410	873.856124	-159.483364	472.580773	853.159532	-271.696238	458.615299	763.101332	-142.293918	433.185084	680.446658	-160.440114	376.604365	614.622070	-151.978999	443.203799	675.901256	-198.507473	310.675734	513.752660	-154.802935	313.516251	532.542303	-235.248510	521.108858	469.553762	-196.542467	415.819000	446.583379	-135.973570	438.518544	461.293152	-244.633126	190.160325	895.303985	-516.286569	254.106608	836.757898	-514.762255	282.327608	853.787273	-497.164625	278.299982	750.666881	-514.165583	327.129159	661.189125	-491.950483	331.385424	632.892543	-388.823479	275.519835	569.363685	-509.193251	245.727108	489.900214	-491.056891	176.980076	431.533352	-491.349393	264.229309	482.042665	-455.538980	104.369964	353.901318	-472.358079	122.805314	344.583297	-395.265481	25.814351	334.554791	-431.169817	272.315458	189.171961	-444.227126	199.131945	225.385110	-396.266613	166.262686	217.443346	-501.730737	-165.692924	858.740332	-314.923395	32.710143	82.629674	-515.364418	33.435679	81.604812	-114.963069	
1	0.0050	500.623770	1285.694935	-140.928095	523.043199	1303.579042	-477.672543	507.314036	1333.196935	-314.070859	466.685600	1202.284128	-319.854677	609.757501	1034.675219	-122.406475	724.611345	836.280365	-143.406748	585.447841	1031.566627	-527.600263	698.747782	831.535903	-488.141114	10.182499	1101.537826	-328.311365	155.706465	1096.466301	-466.006427	139.524833	1113.605201	-190.698323	199.240866	1059.456686	-443.815698	189.431788	1082.916180	-210.514998	30.390360	1143.866867	-288.602976	32.902117	1139.594695	-371.473713	115.685777	1039.947619	-143.092845	94.576767	1000.877544	-498.870113	202.282120	1012.221878	-139.202628	289.333280	1002.025277	-149.091716	361.855715	961.861867	-125.898961	298.334732	1024.975903	-178.206298	480.990922	873.870867	-159.454201	472.611703	853.198494	-271.701514	458.668900	763.124886	-142.319249	433.225711	680.467916	-160.429554	376.625301	614.656566	-151.985751	443.231417	675.917197	-198.514256	310.737202	513.760512	-154.805728	313.553686	532.554745	-235.249772	521.125349	469.527881	-196.534553	415.842502	446.574537	-135.992979	438.544625	461.294168	-244.627850	190.166517	895.280375	-516.285077	254.116103	836.726751	-514.764858	282.331120	853.745748	-497.183881	278.268886	750.639379	-514.211359	327.119304	661.158049	-491.943446	331.372502	632.880985	-388.818268	275.514907	569.337932	-509.168232	245.696823	489.872649	-491.057902	176.972671	431.514771	-491.344731	264.208951	482.031069	-455.506111	104.322224	353.892711	-472.345916	122.770447	344.583329	-395.236593	25.776823	334.536804	-431.171381	272.315177	189.227033	-444.251338	199.105858	225.396017	-396.262821	166.250944	217.457471	-501.741538	-165.545217	858.671042	-315.040250	32.733891	82.597725	-515.387656	33.452445	81.593415	-114.958851	
2	0.0100	500.568293	1285.699947	-140.861537	523.029199	1303.573164	-477.674964	507.285812	1333.189371	-314.070237	466.664631	1202.296821	-319.838677	609.780912	1034.687672	-122.422647	724.636373	836.278499	-143.419646	585.439361	1031.571712	-527.540342	698.738728	831.533188	-488.136798	10.194336	1101.526627	-328.323569	155.706197	1096.461289	-466.007334	139.511049	1113.602743	-190.700558	199.246748	1059.459988	-443.814892	189.361065	1082.452893	-211.355361	30.393774	1143.848212	-288.616480	32.895822	1139.582019	-371.471180	115.701207	1039.936971	-143.096525	94.584014	1000.868271	-498.877619	202.288657	1012.243465	-139.197142	289.342904	1002.030498	-149.087281	361.866533	961.875830	-125.900836	298.338830	1024.978400	-178.198846	481.016045	873.889670	-159.453658	472.635809	853.218474	-271.698650	458.697340	763.140021	-142.303174	433.253434	680.483330	-160.424996	376.641530	614.668987	-151.973389	443.249690	675.938723	-198.508634	310.752068	513.805557	-154.805667	313.564819	532.573501	-235.247314	521.143305	469.500652	-196.539704	415.851473	446.572315	-135.979861	438.561424	461.294741	-244.616412	190.157560	895.253509	-516.294744	254.079257	836.657884	-514.792022	282.321972	853.713478	-497.206049	278.244331	750.615806	-514.213215	327.097803	661.131953	-491.915280	331.358713	632.855395	-388.787705	275.488798	569.323272	-509.169774	245.683318	489.854066	-491.033070	176.920861	431.505490	-491.328801	264.163149	482.000899	-455.508545	104.278286	353.892493	-472.334277	122.708978	344.581854	-395.233877	25.736757	334.504060	-431.167105	272.296819	189.255798	-444.263347	199.107973	225.408826	-396.261868	166.236856	217.457204	-501.730388	-165.490532	858.725435	-314.956773	32.725913	82.587048	-515.386038	33.451839	81.575555	-114.953669	
3	0.0150	500.525407	1285.688394	-140.822783	522.987443	1303.554849	-477.675602	507.334212	1333.284091	-314.071145	466.608175	1202.272998	-319.808466	609.358933	1034.980215	-121.774671	724.636199	836.249774	-143.391993	585.583205	1031.660607	-527.126654	698.739592	831.535247	-488.122569	10.186748	1101.514366	-328.330763	156.629114	1095.567671	-467.491733	139.366809	1113.310769	-190.731005	199.252754	1059.453196	-443.808946	189.357166	1082.435003	-211.380889	30.410158	1143.744786	-288.588089	32.881701	1139.561847	-371.491531	115.717045	1039.935987	-143.113907	94.595887	1000.853356	-498.888940	202.197805	1012.186141	-139.247943	289.354187	1002.037363	-149.075137	361.875050	961.882778	-125.894016	298.239882	1024.763921	-177.871133	481.182372	873.841929	-159.545330	472.647905	853.222487	-271.667845	458.712371	763.154267	-142.291638	431.572587	678.642229	-160.880918	376.838344	614.548889	-152.011761	442.473857	675.441707	-198.862096	310.463975	514.435167	-154.186311	313.453628	532.568614	-235.575772	521.158435	469.480499	-196.553458	416.244344	446.364908	-136.112418	438.695254	461.280689	-244.909419	190.151493	895.242381	-516.305562	254.147047	836.353681	-514.636717	282.287936	854.161314	-497.613272	278.165752	750.433556	-514.237715	327.296279	660.923745	-492.024184	331.343664	632.822875	-388.777985	275.717359	569.170611	-509.253366	245.729836	489.821265	-491.302836	176.878336	431.494292	-491.328538	264.157761	481.906142	-455.463445	104.110521	354.109737	-472.179823	122.673989	344.565137	-395.224762	25.712657	334.537741	-431.213614	272.295269	189.280065	-444.246300	199.105271	225.406709	-396.281848	166.219606	217.465592	-501.732977	-165.549784	858.654082	-315.080215	32.716886	82.606411	-515.391287	33.441439	81.579391	-114.957958	
